<svg xmlns="http://www.w3.org/2000/svg" viewBox="0 0 1080 1080"><defs><style>.cls-1{fill:#334;}.cls-2{fill:#3c9;}.cls-3{fill:#fff;}</style></defs><g id="Слой_1" data-name="Слой 1"><rect class="cls-1" width="1080" height="1080" rx="216"/></g><g id="Слой_3" data-name="Слой 3"><rect class="cls-2" x="158.16" y="158.16" width="763.68" height="763.68" transform="translate(-223.68 540) rotate(-45)"/><polygon class="cls-3" points="1001 619 79 619 0 540 79 461 1001 461 1080 540 1001 619"/><path class="cls-1" d="M68.15,592.75H57V487.25h72.34v9.65H68.15ZM67,538.34h55.76V548H67Z"/><path class="cls-1" d="M152.4,592.75V487.25h11.15v105.5Z"/><path class="cls-1" d="M197.9,592.75V487.25h9.2l72.79,91.63h-4.82V487.25h11v105.5h-9.2l-72.64-91.63h4.83v91.63Z"/><path class="cls-1" d="M340.92,592.75V496.9H303.85v-9.65h85.3v9.65H352.07v95.85Z"/><path class="cls-1" d="M406.93,592.75V487.25h39.48q13.41,0,23.06,4.3a33.1,33.1,0,0,1,14.84,12.36q5.2,8.05,5.2,19.51,0,11.16-5.2,19.22A33.23,33.23,0,0,1,469.47,555q-9.64,4.29-23.06,4.29h-33.3l5-5.12v38.58Zm11.15-37.68-5-5.27h33q15.83,0,24-6.94t8.21-19.44q0-12.66-8.21-19.59t-24-6.93h-33l5-5.28ZM479,592.75l-27.12-38.28h12.05l27.28,38.28Z"/><path class="cls-1" d="M499,592.75l48.22-105.5h11l48.23,105.5H594.7l-44.3-99h4.52l-44.31,99Zm19-28.18,3.32-9.05h61.34l3.31,9.05Z"/><path class="cls-1" d="M668.25,593.65a59.37,59.37,0,0,1-22-4,51.44,51.44,0,0,1-29-28.26,57.38,57.38,0,0,1,0-42.8,51.14,51.14,0,0,1,11.61-17,53,53,0,0,1,17.55-11.23,59.37,59.37,0,0,1,22-4A60.12,60.12,0,0,1,690,490.19a43.37,43.37,0,0,1,17,11.53l-7.09,7.08a39.26,39.26,0,0,0-14.31-9.57,47.91,47.91,0,0,0-16.88-2.93,47.2,47.2,0,0,0-17.63,3.24,42,42,0,0,0-14.17,9.19,43.23,43.23,0,0,0-9.42,13.86,46.4,46.4,0,0,0,0,34.82,43.23,43.23,0,0,0,9.42,13.86,42,42,0,0,0,14.17,9.19,49.22,49.22,0,0,0,34.51.23A40,40,0,0,0,699.89,571l7.09,7.09a44.06,44.06,0,0,1-17,11.6A59.31,59.31,0,0,1,668.25,593.65Z"/><path class="cls-1" d="M730.79,592.75V487.25h11.15v105.5Zm9.64-26.23L740,553l63.9-65.71h12.81l-46.57,48.83-6.33,6.78Zm66.16,26.23L761.08,540.3l7.53-8.14,51.24,60.59Z"/><path class="cls-1" d="M849.09,583.1h63.44v9.65H837.94V487.25h72.33v9.65H849.09Zm-1.21-48.68h55.76v9.5H847.88Z"/><path class="cls-1" d="M938.76,592.75V487.25h39.48q13.41,0,23.06,4.3a33.1,33.1,0,0,1,14.84,12.36q5.21,8.05,5.2,19.51,0,11.16-5.2,19.22A33.23,33.23,0,0,1,1001.3,555q-9.64,4.29-23.06,4.29h-33.3l5-5.12v38.58Zm11.15-37.68-5-5.27h33q15.82,0,24-6.94t8.21-19.44q0-12.66-8.21-19.59t-24-6.93h-33l5-5.28Zm60.88,37.68-27.12-38.28h12.05L1023,592.75Z"/></g></svg>